<svg xmlns="http://www.w3.org/2000/svg" xmlns:xlink="http://www.w3.org/1999/xlink" xmlns:fi="http://pattern.flaticon.com/" x="0" y="0" width="800" height="400" viewBox="0 0 700 350"><rect x="0px" y="0px" width="100%" height="100%" opacity="1" fill="#ffffff"/><defs><path d="M479.285,286.286l-36.286-90.715C439.216,186.112,430.188,180,420,180s-19.216,6.112-22.999,15.571  l-36.286,90.715c-1.232,3.081-0.855,6.572,1.005,9.32c1.859,2.747,4.962,4.394,8.28,4.394h39.709  c-5.003,85.789-73.92,154.706-159.709,159.709V170h70c5.522,0,10-4.478,10-10s-4.478-10-10-10h-70v-40.911  c25.57-4.715,45-27.175,45-54.089c0-30.327-24.673-55-55-55s-55,24.673-55,55c0,26.914,19.43,49.374,45,54.089V150h-70  c-5.523,0-10,4.478-10,10s4.477,10,10,10h70v289.709C144.211,454.706,75.294,385.789,70.291,300H110c3.318,0,6.42-1.646,8.281-4.394  c1.86-2.748,2.236-6.239,1.004-9.32l-36.286-90.715C79.215,186.112,70.188,180,60,180s-19.215,6.112-22.999,15.571L0.715,286.286  c-1.232,3.081-0.856,6.572,1.004,9.32C3.58,298.354,6.682,300,10,300h40.26C55.482,400.132,138.591,480,240,480  s184.518-79.868,189.74-180H470c3.318,0,6.421-1.646,8.28-4.394C480.141,292.859,480.518,289.367,479.285,286.286z M24.771,280  l30.8-77.001C56.3,201.177,58.038,200,60,200s3.7,1.177,4.429,2.999L95.23,280H24.771z M205,55c0-19.299,15.701-35,35-35  c19.299,0,35,15.701,35,35s-15.701,35-35,35C220.701,90,205,74.299,205,55z M384.771,280l30.801-77.001  C416.3,201.177,418.038,200,420,200s3.7,1.177,4.429,2.999L455.23,280H384.771z" transform="matrix(0.125 0 0 0.125 290 138)" id="L1_22"/><path d="M479.285,286.286l-36.286-90.715C439.216,186.112,430.188,180,420,180s-19.216,6.112-22.999,15.571  l-36.286,90.715c-1.232,3.081-0.855,6.572,1.005,9.32c1.859,2.747,4.962,4.394,8.28,4.394h39.709  c-5.003,85.789-73.92,154.706-159.709,159.709V170h70c5.522,0,10-4.478,10-10s-4.478-10-10-10h-70v-40.911  c25.57-4.715,45-27.175,45-54.089c0-30.327-24.673-55-55-55s-55,24.673-55,55c0,26.914,19.43,49.374,45,54.089V150h-70  c-5.523,0-10,4.478-10,10s4.477,10,10,10h70v289.709C144.211,454.706,75.294,385.789,70.291,300H110c3.318,0,6.42-1.646,8.281-4.394  c1.86-2.748,2.236-6.239,1.004-9.32l-36.286-90.715C79.215,186.112,70.188,180,60,180s-19.215,6.112-22.999,15.571L0.715,286.286  c-1.232,3.081-0.856,6.572,1.004,9.32C3.58,298.354,6.682,300,10,300h40.26C55.482,400.132,138.591,480,240,480  s184.518-79.868,189.74-180H470c3.318,0,6.421-1.646,8.28-4.394C480.141,292.859,480.518,289.367,479.285,286.286z M24.771,280  l30.8-77.001C56.3,201.177,58.038,200,60,200s3.7,1.177,4.429,2.999L95.23,280H24.771z M205,55c0-19.299,15.701-35,35-35  c19.299,0,35,15.701,35,35s-15.701,35-35,35C220.701,90,205,74.299,205,55z M384.771,280l30.801-77.001  C416.3,201.177,418.038,200,420,200s3.7,1.177,4.429,2.999L455.23,280H384.771z" transform="matrix(0.125 0 0 0.125 180 8)" id="L1_24"/><path d="M479.285,286.286l-36.286-90.715C439.216,186.112,430.188,180,420,180s-19.216,6.112-22.999,15.571  l-36.286,90.715c-1.232,3.081-0.855,6.572,1.005,9.32c1.859,2.747,4.962,4.394,8.28,4.394h39.709  c-5.003,85.789-73.92,154.706-159.709,159.709V170h70c5.522,0,10-4.478,10-10s-4.478-10-10-10h-70v-40.911  c25.57-4.715,45-27.175,45-54.089c0-30.327-24.673-55-55-55s-55,24.673-55,55c0,26.914,19.43,49.374,45,54.089V150h-70  c-5.523,0-10,4.478-10,10s4.477,10,10,10h70v289.709C144.211,454.706,75.294,385.789,70.291,300H110c3.318,0,6.42-1.646,8.281-4.394  c1.86-2.748,2.236-6.239,1.004-9.32l-36.286-90.715C79.215,186.112,70.188,180,60,180s-19.215,6.112-22.999,15.571L0.715,286.286  c-1.232,3.081-0.856,6.572,1.004,9.32C3.58,298.354,6.682,300,10,300h40.26C55.482,400.132,138.591,480,240,480  s184.518-79.868,189.74-180H470c3.318,0,6.421-1.646,8.28-4.394C480.141,292.859,480.518,289.367,479.285,286.286z M24.771,280  l30.8-77.001C56.3,201.177,58.038,200,60,200s3.7,1.177,4.429,2.999L95.23,280H24.771z M205,55c0-19.299,15.701-35,35-35  c19.299,0,35,15.701,35,35s-15.701,35-35,35C220.701,90,205,74.299,205,55z M384.771,280l30.801-77.001  C416.3,201.177,418.038,200,420,200s3.7,1.177,4.429,2.999L455.23,280H384.771z" transform="matrix(0.125 0 0 0.125 117 217)" id="L1_25"/></defs><g fi:class="KUsePattern"><pattern id="pattern_L1_22" width="350" height="350" patternUnits="userSpaceOnUse"><use xlink:href="#L1_22" x="-350" y="-350"/><use xlink:href="#L1_22" x="0" y="-350"/><use xlink:href="#L1_22" x="350" y="-350"/><use xlink:href="#L1_22" x="-350" y="0"/><use xlink:href="#L1_22" x="0" y="0"/><use xlink:href="#L1_22" x="350" y="0"/><use xlink:href="#L1_22" x="-350" y="350"/><use xlink:href="#L1_22" x="0" y="350"/><use xlink:href="#L1_22" x="350" y="350"/></pattern><rect x="0" y="0" width="100%" height="100%" fill="url(#pattern_L1_22)"/></g><g fi:class="KUsePattern"><pattern id="pattern_L1_24" width="350" height="350" patternUnits="userSpaceOnUse"><use xlink:href="#L1_24" x="-350" y="-350"/><use xlink:href="#L1_24" x="0" y="-350"/><use xlink:href="#L1_24" x="350" y="-350"/><use xlink:href="#L1_24" x="-350" y="0"/><use xlink:href="#L1_24" x="0" y="0"/><use xlink:href="#L1_24" x="350" y="0"/><use xlink:href="#L1_24" x="-350" y="350"/><use xlink:href="#L1_24" x="0" y="350"/><use xlink:href="#L1_24" x="350" y="350"/></pattern><rect x="0" y="0" width="100%" height="100%" fill="url(#pattern_L1_24)"/></g><g fi:class="KUsePattern"><pattern id="pattern_L1_25" width="350" height="350" patternUnits="userSpaceOnUse"><use xlink:href="#L1_25" x="-350" y="-350"/><use xlink:href="#L1_25" x="0" y="-350"/><use xlink:href="#L1_25" x="350" y="-350"/><use xlink:href="#L1_25" x="-350" y="0"/><use xlink:href="#L1_25" x="0" y="0"/><use xlink:href="#L1_25" x="350" y="0"/><use xlink:href="#L1_25" x="-350" y="350"/><use xlink:href="#L1_25" x="0" y="350"/><use xlink:href="#L1_25" x="350" y="350"/></pattern><rect x="0" y="0" width="100%" height="100%" fill="url(#pattern_L1_25)"/></g></svg>